<svg version="1.1" id="logo-svg" xmlns="http://www.w3.org/2000/svg" xmlns:xlink="http://www.w3.org/1999/xlink" x="0px" y="0px"
  viewBox="0 0 500 500" style="enable-background:new 0 0 500 500;" xml:space="preserve">
  <style type="text/css">
    .st0{fill:none;stroke:url(#gradient);stroke-miterlimit:10;stroke-width:5.5;}
  </style>
  <linearGradient id="gradient" x1="0%" y1="0%" x2="0%" y2="100%">
    <stop offset="0%" stop-color="#592741" />
  </linearGradient>
  <path class="st0" d="M279.45,206.62c-3.57,5.53-8.86,56.23,29.99,104.23c-0.87-0.08-24.82,3.92-26.4,4.35
    c3.3,4.5,21.77,49.15,17.79,70.67c-0.66-2.15-18.72-33.62-46.89-51.92c-26.55-17.25-44.06-19.33-60.57-36.04
    c-9.4-9.51-18.06-25.28-20.09-34.71c-5.81-27.06,12.41-47.75,12.26-66.5c-0.13-16.37-11.4-14.71-36.05-33.21
    c-10.4-7.8-21.18-16.14-25.56-27.14c0.9-1.17,25.68,15.8,43.72,1.52c5.98-4.73,24.23-26.09,47.89-23.52
    c22.05,2.4,31.3,15.72,36.63,30.86C260.69,169.4,244.49,197.9,279.45,206.62z"/>
  <path class="st0" d="M161.18,200.99c4.1,2.39,8.39,4.49,12.86,6.26c-5.36,16.01-17.55,51.4-0.89,84.39
    c-9.45-4.31-17.88-9.51-25.56-15.12C142.49,261.93,146.54,225.63,161.18,200.99z"/>
  <path class="st0" d="M131.06,174.41c6.06,7.63,12.83,14.37,20.32,20.03c-2.89,5.54-19.97,26.72-15.52,72.19
    c-7.32-7.14-13.28-15.06-17.99-23.69l14.24,2.35l-17.44-25.77c0.21-4.62,1.03-8.04,2.91-14.25c5.26,4.98,9.74,7.53,15,10.02
    c-5.69-7.14-9.2-12.91-11.81-20.05C122.8,189.69,127.33,178.74,131.06,174.41z"/>
  <path class="st0" d="M110.45,139.21c3.93,9.18,8.5,17.79,13.72,25.68l-8.06,17.7C111.02,173.1,108.68,156.46,110.45,139.21z"/>
  <path class="st0" d="M309,199.45c-6.59,4.73-13.96,7.19-22,7.39c-2.18,30.36-1.03,61.41,32.7,99.08c7.36-3.98,14.37-9,20.87-14.85
    C320.61,274.37,303.21,231.77,309,199.45z"/>
  <path class="st0" d="M331.94,165.88c-2.85,7.62-6.14,14.18-9.84,19.68c-5.69,34.81,10.51,78.91,28.74,95.11
    c6.5-7.4,12.28-15.66,17.12-24.5c-2.67-3.04-5.22-6.2-7.63-9.49c0.85-0.54-6.04,6.85-15.79,7.6c4.35-4.05,7.8-11.25,8.97-17.83
    C341.84,217.07,334.38,193.79,331.94,165.88z"/>
  <path class="st0" d="M342.79,114.19c-1.27,12.99-3.19,24.63-5.73,34.9c-0.9,3.67,6.17,25.25,17.43,44.47
    C357.32,185.91,367.63,150.05,342.79,114.19z"/>
  <path class="st0" d="M354.7,193.91c7.34,12.44,16.43,23.85,26.25,28.66c4.86-20.58,4.53-42.22-2.91-62.33
    C374.04,169.3,372.87,177.4,354.7,193.91z"/>
</svg>